/* XPM */
static char *bd5338532b764b2daf2891f4e83963e8pNRICv929dKnHDTT[] = {
/* columns rows colors chars-per-pixel */
"64 64 161 2 ",
"   c #1F130F",
".  c #220E0A",
"X  c #24130D",
"o  c #2A160E",
"O  c #2E180F",
"+  c #251713",
"@  c #2A1611",
"#  c #271811",
"$  c #2D1A13",
"%  c #2E1E19",
"&  c #331D15",
"*  c #381E15",
"=  c #321F19",
"-  c #362016",
";  c #3A2216",
":  c #35221B",
">  c #3B251C",
",  c #3D291E",
"<  c #342521",
"1  c #3A2720",
"2  c #3E2A22",
"3  c #412616",
"4  c #40261B",
"5  c #422A1D",
"6  c #4A2F1F",
"7  c #51311C",
"8  c #432D24",
"9  c #492F24",
"0  c #432E28",
"q  c #482F28",
"w  c #453126",
"e  c #4B3225",
"r  c #46322A",
"t  c #4B352B",
"y  c #4F392C",
"u  c #533520",
"i  c #593723",
"p  c #5C3B27",
"a  c #513729",
"s  c #533A2C",
"d  c #5A3D2D",
"f  c #4C3731",
"g  c #4D3932",
"h  c #543D33",
"j  c #593E32",
"k  c #513E39",
"l  c #57412D",
"z  c #5F422F",
"x  c #564136",
"c  c #5B4235",
"v  c #54413A",
"b  c #5C443A",
"n  c #5D483D",
"m  c #66432F",
"M  c #6A432D",
"N  c #624535",
"B  c #654836",
"V  c #61463A",
"C  c #644A3C",
"Z  c #6B4E3C",
"A  c #724B35",
"S  c #6D503E",
"D  c #73533D",
"F  c #594641",
"G  c #5E4941",
"H  c #604741",
"J  c #644D42",
"K  c #6A4F41",
"L  c #675146",
"P  c #6C5243",
"I  c #6C554B",
"U  c #735544",
"Y  c #765946",
"T  c #7C5A44",
"R  c #715649",
"E  c #755B4B",
"W  c #7A5D4B",
"Q  c #705750",
"!  c #745D52",
"~  c #7A5E51",
"^  c #7D614E",
"/  c #766053",
"(  c #7D6252",
")  c #7D6559",
"_  c #7E685E",
"`  c #825B44",
"'  c #815E49",
"]  c #83624E",
"[  c #826553",
"{  c #886650",
"}  c #866855",
"|  c #8C6B55",
" . c #81665A",
".. c #856A5B",
"X. c #866C5D",
"o. c #8A6D59",
"O. c #8B6D5A",
"+. c #8D6E58",
"@. c #8D6D5A",
"#. c #8D6D5D",
"$. c #916B56",
"%. c #916E58",
"&. c #8E725E",
"*. c #90705C",
"=. c #92735D",
"-. c #93745F",
";. c #93765F",
":. c #98745C",
">. c #95785E",
",. c #836E65",
"<. c #886E61",
"1. c #867065",
"2. c #8A7261",
"3. c #8E7362",
"4. c #8E7461",
"5. c #8F7565",
"6. c #8E7469",
"7. c #967460",
"8. c #937564",
"9. c #957767",
"0. c #997663",
"q. c #987764",
"w. c #937966",
"e. c #967A65",
"r. c #997863",
"t. c #9B7B64",
"y. c #9C7B64",
"u. c #9C7C67",
"i. c #917669",
"p. c #927769",
"a. c #94796A",
"s. c #9D7B68",
"d. c #9B7C6A",
"f. c #A17E69",
"g. c #9D816C",
"h. c #9D826D",
"j. c #9B8175",
"k. c #98837B",
"l. c #A3806B",
"z. c #A2826D",
"x. c #AB876F",
"c. c #A28772",
"v. c #A48572",
"b. c #A08375",
"n. c #A68A75",
"m. c #A78877",
"M. c #AA8A75",
"N. c #A5897A",
"B. c #AC8E7B",
"V. c #B2947C",
"C. c #B9967F",
"Z. c #A38B82",
"A. c #A68C80",
"S. c #AE9282",
"D. c #AD9285",
"F. c #B59582",
"G. c #BB9A84",
"H. c #B0968B",
"J. c #BE9D88",
"K. c #C09D85",
"L. c #C2A08B",
/* pixels */
"O.B j h g f % X % r A M A ] ] r.;.c.X.b s s t r 8 e <.V.+.O.D e u 8 & f 8 0 h f r : & 4 8 8 q 9 s N Z b.P K ..U ( 3.} ;.m.s.' D ",
"[ d c y h g : X o y A T | $.q.l.t.4.2.c h s g t r e ( i.[ W V 8 4 y y c 0 > e 8 8 8 > * 8 e x h e j a P e j V s Z ~ W +.<.~ O.( ",
"b C d e G n = X @ t h.%.+.7.s.} u.^ c s x x n g 8 : c ( C C h & ; e 8 h r > r g g f 8 ; b H J n h K c s 9 e a s c ( ..Y +.C c j ",
"h t c C h h % % > J w.) } #.9.+.O.^ c h s h h g 8 ; s E J C J f h b y s w 8 0 t t t 8 9 c  .! I J J J b C C b c b b C p i e y h ",
"r 0 g J c r : X > U R R A.D.i.*.5.( P a w 8 t r > O 9 x h t 0 8 r 8 w y 9 w 2 : : r 9 a J G G n J x b h h h h h u n h p 7 p h g ",
"g g v f h 8 : @ : t h J L ,._ W ! J Z e y e t 0 8 O , h t 1 > 0 > % > 2 > : $ @ : > > r 0 0 t b n x h y r , , w , 2 8 r u n g f ",
"% < : : : = @ @ = 0 0 r t b v h h y K y y 8 : 5 0 - , 2 0 r v F v f r > : : = @ = $ = > > 2 2 t t 8 : : = = = % X @ : = $ = : % ",
"X   + # @ X @ O O @ @ o % : 2 r c J I s e e 8 > 2 - > 2 t g g f g r w 0 w 0 > : : : 1 > : 0 0 0 8 0 > 2 @ % = @ @ % @ X $ X X X ",
"$ + : @ o = @ & @ o X o $ : 1 0 x b C y 8 , 8 2 2 & 8 r r h k r r w 2 r r w > - = : : : > 0 2 2 0 2 - : : > : : = = : : : @ o % ",
"k r r 0 = : = & & & o @ % : : > e h c y 9 8 8 8 : : e e e b 8 : 2 , > , , 8 , : : > > > = > 8 2 , 0 > , : - 0 2 0 2 r ,.J r t r ",
"K d e C 8 & = = ; & & O = 2 : : 5 e c c s 8 0 0 & & ; 9 8 8 > & : & - & > 8 , > 5 5 - > & & , > , ; , 8 8 8 y h J I ! 8.( [ a.[ ",
"P e 9 b h w % @ = - > > > 2 2 , 9 e c e 5 e r > & & 5 e 9 ; * 4 ; & ; ; e s y y c b 5 ; ; & w x h s b ( ) I  . .<.6.) R ) j.H.a.",
"( K s b h t = > = = 8 y b J b h V y e 4 ; > > 0 = @ 5 c c V V b a 9 e e c j h s c Z a 5 ; ; y P W Y ( ~  .P R } 8.d.W B [ d.N.~ ",
"R a c C x g = : @ O - a a P B B V s e 9 ; * w 2 > & 8 s [ [ &.X. .W P b P V P c Z J d e 4 5 c U W T ] { R U Z Y } [ W 3.b.h.P X.",
"N d C V x h > : = : ; a d R Y R P J h h y n t r r 0 e b 5.} [ K ..i...( W P b J C C e e C P P U ^ +.] ^ Y W N c U Y ..3.P V d d ",
"s e s n J J t 2 , > , h S U ^ ^ W X. .! ! x r r t r e J ..[ O.{ *.y.e.O.8.) c h h e 5 9 Z c K W ^ *.D W } 3.B B a c Y c e a 9 e ",
"9 h n I G n t 0 2 2 > c E U U W W 8.} [ [ ) h r t 9 9 P R Y U } 8.} ^ O.8._ v r 0 > : , a e V W W &.D R ..X.Z e 4 V c e e y 5 > ",
"q x J Q x t 2 0 2 8 , w C Z R R Z ( ^ R J I h t y 5 9 E U #.} W W ] *.+.{ ) v 2 1 : : 2 c c V 3.O.E P J W P c e 4 c a 5 > > e e ",
"8 e n ..G 0 2 0 0 > - , e c U D Z Y P R V L h y y > e i.8.W Z Z W { O.#.B.1.b = $ = 2 2 c c R ^ ( V V b ! K h y 4 e 5 ; > 9 h h ",
"8 8 x B N 0 > : > = - , e d W ( B W R P c J x h y 5 e N.d.] B.+.A W S W ( I g : % : > > c s N R ! P j s K b y ; & & & > 5 5 y h ",
"t 8 j b s r > > : > > ; e a W } [ O.+...V ! c h s e a S.M.+.J.0.M T %.[ ( P r @ @ % & , y a B W ! P e y n s 9 = = & - ; ; 9 h a ",
"t 8 h j e t 1 2 : > - 5 d d W [  .3.w.;.X.W J c s 5 a m.F.+.F.f.A A ....R h 0 @ o o & ; e d I U x n e s f 8 , & : : & : e e s s ",
"q 9 8 9 e , : 2 > > 2 y h x N Z X.d.i.j.v.D C s e e e 9.*.} G.x.` M } O.P b r X X @ & 5 h h h h r t r t r 0 = @ = : 8 r a a y t ",
"4 8 8 8 8 , = 2 > - : : : 5 e e S X.Y O.9.B z l a 5 a Z Z Y s.7.[ U D Z d h > . X O & ; h y t r r r 2 0 > 0 : : 2 0 0 r y e e r ",
"> , e e 8 > : w > : : > , 5 4 4 a [ 7.9.i.P c a 6 ; 7 u Y M.z.+.#.` P N 6 5 & X o X & 4 y y y t t r > = & & : & , 8 8 0 8 8 w 8 ",
"h t x y 9 = : 2 2 , , > 5 e c V c U d.<.X.Z c d ; 3 N S +.L.G.v.W U W [ a 3 = o X = & e 5 > 5 9 r 0 & @ & & & & ; : & : y e s e ",
"c h x x t : : 0 w 5 , > 8 5 a c R [ W W ( E Z c 5 3 B } ] +.C.K.{ Y W Y N B = . $ = & a e e 9 9 e e 8 5 5 8 : * 8 4 8 h V R X.[ ",
"P x h h t > : r r , : > > ; 5 e c ^ 3.B W [ P d 6 a N p p Y %.;.c.W ] [ ] h : X X = 8 P q.%.E P J b s s 9 8 9 y c c R X.3.W *.8.",
"R c h h g 2 > 0 w , & & 5 > > e e P e.Y ( ( W B N Y 7 7 i +.:.f.M.d.B  .! f : @ @ 0 ( j.} +.U Y ] 3.X.B C c 8 e d c ..m.;.Y ;.a.",
") I h c h 2 r w , > - ; 5 9 > y a V } Z 8.[ Z B P W Y p m } C.f.W B j c g v < + : g Z.a.d.8.O.T ;.h.4.B c V 8 8 a  .e.g.h.| *.S ",
"e.E s b w = f r w , & & 9 h e 5 9 s P W 8.U Y U O.U Y W ' *.*.' B d C t 0 g < X + r k.j.9.+.+.' +.d.&.E J j t 9 5 ~ +.>.*.*.} W ",
"P 4 ; h r > v g r 2 - ; a h e > e d W 7.h.R #.[ Y W { v.f.7.%.D { ] b h w g % X $ k f.0.( 9.T { { d.8.U j h q , > h m.M.+.e.^ N ",
"u 8 & f 8 0 h f r : & 4 8 8 q 9 s N Z b.P K ..U ( 3.} ;.m.s.' D O.B j h g t % X % r A M A ] ] r.;.c.X.b s s t r 8 e <.V.+.O.D e ",
"4 y y c 0 > e 8 8 8 > * 8 e x h e j a P e j V s Z ~ W +.<.~ O.( [ d c y h g : X o y A T | $.q.l.t.4.2.c h s g t w e ( i.[ W V 8 ",
"; e 8 h r > r g g f 8 ; b H J n h K c s 9 e a s c ( ..Y +.C c j b C d e G n = X @ t h.%.+.7.s.} u.^ c s x x n g 8 : c ( C C h & ",
"h b y s w 8 0 t t t 8 9 c  .! I J J J b C C b c b b C p i e y h h t c C h h % % > J w.) } #.9.+.O.^ c h s h h g 8 ; s E J C J f ",
"r 8 w y 9 w 2 : : r 9 a J G G n J x b h h h h h u n h p 7 p h g r 0 g J c r : X > U R R A.D.i.*.5.( P a w 8 t r > @ 9 c h r 0 8 ",
"> $ > 2 > : $ @ : > > r 0 0 t b n x h y r , , w , 2 8 r u n g f g g v f h 8 : @ : t h J L ,._ W ! J Z e y e t 0 8 O > h t > > 0 ",
"v f r > : : = @ = $ = > > 2 2 t t 8 : : = = = % X @ : = $ = : % % < < : : = @ @ = 0 0 r t b v h h y K y y 8 : 8 0 - , 8 0 r v F ",
"g r w 0 w 0 > : : : 1 > : 0 0 0 8 0 > 2 @ % = @ @ % @ X $ X X X X   + # @ X @ O O @ @ o % : 2 r c J I s e q 8 > 2 - > 2 t g g f ",
"r w 2 r r w > - = : : : > 0 2 2 0 2 - : : > : : = = : : : @ o % $ + : @ o = @ & @ o X o $ : 1 0 x b C y 8 , 8 2 2 & 8 r r h k r ",
"2 , > , , 8 , : : > > > = > 8 2 , 0 > , : - 0 2 0 2 r ,.J r t r k r y 0 = : = & & & o @ % : : > e h c y 9 8 8 8 : : e e e b 8 : ",
": & - & > 8 5 > 5 8 - > & & , > , ; , 8 8 8 y h J I ! 8.( [ a.[ K d e C 9 & = = ; & & O = 2 : : 5 e c c s 8 0 0 & & ; 9 8 8 > & ",
"; & ; ; e s y y c b 5 ; ; & w c h s b ( ) I  . .<.6.) R ) j.H.a.P e 9 b h w % @ = - > > > 2 2 , 9 e c e 5 e r > & & 4 e 9 ; * 4 ",
"a 9 e e c j h s c Z a 5 ; ; y P W Y ( ~  .P R } 8.d.W B [ d.N.~ ( K s b h t = > = = 8 y b J b h V y e 4 ; > > 0 = @ 5 c c V V b ",
" .W P b P V P c Z J d e 4 5 c U W T ] { R U Z Y } [ W 3.b.h.P X.R a c C x g = : @ O - a s P B B V s e 9 ; & w 2 > & 8 s [ [ &.X.",
" .i...( W P b J C C e e C P P U ^ +.] ^ Y W N c U Y ..3.P V d d N d C V x h > : = : ; s d R Y R P J h h y n t r r 0 e b 5.} [ K ",
"*.y.e.O.8.) c h h e 5 9 Z c K W ^ *.D W } 3.B B a c Y c e a 5 e s e s n J J t 2 , > , h S U ^ ^ W X. .! ! x r r t r e J ..[ +.{ ",
"8.} ^ O.8._ v r 0 > : , a e V W W &.D R ..X.S e 4 V c e e y 5 > 9 h n I G n t 0 2 2 > c E U U W W 8.} [ [ ) h r t 9 9 P R Y U } ",
"W ] *.+.{ ) v 2 1 : : 2 c c V 3.O.E P J W P c e 4 c a 5 > > e e q x J Q x t 2 0 2 8 , w C Z R R S ( ^ R J I h y y 5 9 E U #.} W ",
"W { O.#.B.1.b = $ = 2 2 c c R ^ ( V V b / P h r 5 e 5 ; > 9 h h 8 e G ..G 0 2 0 0 > & > e c U D Z Y P R V L x y y > e i.8.W Z Z ",
"A W S W ( I g : % : > > c s N R ! P c s P V y - & & & ; 5 5 y h 8 8 b B N 0 > : > = & > e d W ( B W R P c J x h y 5 e N.d.] B.+.",
"M T %.[ ( P r @ @ % & , y a B W ! P e y n s 9 & = & - ; ; 9 h s y 8 j b s r > > : > > ; e a W } [ O.+. .V ! c h s e a S.M.+.J.0.",
"A A ....R h 0 @ o o & ; e d I U x n e s f 8 , & : : & : e e s s t 8 h j e t 1 2 : > - 5 d d W [  .3.8.;.X.W J c s 5 a m.F.+.F.f.",
"` M } O.P b r X X @ & 5 h h h h r t r t r 0 = @ = : 8 r a a y t q 9 8 9 e , : 2 > > 2 y h x N Z X.d.i.j.v.D C s y e e 9.*.} G.x.",
"[ U D Z d h > . X O & ; h y t r r r 2 0 > 0 : : 2 0 0 r y e e r , 8 8 8 8 , = 2 > : : : : 5 e e S X.Y O.9.B z l a 5 a Z Z Y s.7.",
"#.` P N 9 5 & X o X & 4 y y y t t r > = & & * & , 8 8 0 8 8 w 8 > , e e 8 > : w > : : > > 4 4 4 a [ 7.9.i.P c a 5 ; 7 u Y M.z.+.",
"W U W [ a 3 = o X = & e 5 > 5 9 r 0 & @ & & & & ; : & : y e y e h t x e 9 = : 2 2 , , > 5 e c V c Y d.<.X.Z c d ; ; N Z +.L.G.v.",
"{ Y W Y N B % . $ = & a e e 9 9 e e 8 8 5 9 : * 8 4 8 h V R X.[ c h x h t : : 0 w 5 , , 8 5 a c R [ W W ( E Z c 5 3 B } ] %.C.K.",
"v.W ] [ ] h : X X = 8 P q.%.E P J b s s 9 8 9 y j c R X.3.W ;.7.P x h h t > : r r , : > > ; 5 e c ^ 3.B W [ P d 6 a N p p Y +.;.",
"M.d.B  .! f : @ @ 0 ) j.} +.U Y ] 3.X.B C c 9 y s c ..m.;.Y ;.e.R c h h g 2 > 0 w , & - 5 > > e e P t.Y ( ( W B N Y 7 7 i +.:.f.",
"W B d c g v < + : g Z.a.d.8.O.T ;.h.4.B c V 8 8 a  .e.h.g.| *.S ) I h b h 2 r w , > - ; 5 9 > y a V } Z 8.[ Z B P W Y p m { C.f.",
"B d C t 0 g < X + r k.j.9.+.+.' +.d.&.E J j t q 5 ~ +.>.*.*.{ W e.E s b w = f r w , & & 9 h e 5 9 s P W 8.U Y U O.U Y W ' *.*.' ",
"{ ] b h r g % X $ k f.0.( 9.T { { d.3.U j h q 1 > h m.M.+.e.^ N P 5 : h r > v g r 2 : ; a h e > e d W 7.h.R #.[ Y W { c.f.7.%.D "
};
