/* XPM */
static char *beb9fb2273684a4290f46f2012b9490feJ4Nn9jgC4OS9QE7[] = {
/* columns rows colors chars-per-pixel */
"64 64 111 2 ",
"   c None",
".  c #727272",
"X  c gray45",
"o  c gray46",
"O  c #767676",
"+  c #777777",
"@  c #797979",
"#  c gray48",
"$  c #7B7B7B",
"%  c #7C7C7C",
"&  c gray49",
"*  c #7E7E7E",
"=  c gray50",
"-  c #808080",
";  c #818181",
":  c gray51",
">  c #838383",
",  c #848484",
"<  c gray52",
"1  c #868686",
"2  c gray53",
"3  c #888888",
"4  c #898989",
"5  c gray54",
"6  c #8B8B8B",
"7  c gray55",
"8  c #8D8D8D",
"9  c #8E8E8E",
"0  c gray56",
"q  c #909090",
"w  c gray57",
"e  c #929292",
"r  c #939393",
"t  c gray58",
"y  c #959595",
"u  c gray59",
"i  c #979797",
"p  c #989898",
"a  c gray60",
"s  c #9A9A9A",
"d  c #9B9B9B",
"f  c gray61",
"g  c #9D9D9D",
"h  c gray62",
"j  c #9F9F9F",
"k  c #A0A0A0",
"l  c gray63",
"z  c #A2A2A2",
"x  c gray64",
"c  c #A4A4A4",
"v  c #A5A5A5",
"b  c gray65",
"n  c #A7A7A7",
"m  c gray66",
"M  c #A9A9A9",
"N  c #AAAAAA",
"B  c gray67",
"V  c #ACACAC",
"C  c gray68",
"Z  c #AEAEAE",
"A  c #AFAFAF",
"S  c gray69",
"D  c #B1B1B1",
"F  c #B2B2B2",
"G  c gray70",
"H  c #B4B4B4",
"J  c gray71",
"K  c #B6B6B6",
"L  c #B7B7B7",
"P  c gray72",
"I  c #B9B9B9",
"U  c gray73",
"Y  c #BBBBBB",
"T  c #BCBCBC",
"R  c gray74",
"E  c gray",
"W  c gray75",
"Q  c #C0C0C0",
"!  c #C1C1C1",
"~  c gray76",
"^  c #C3C3C3",
"/  c gray77",
"(  c #C5C5C5",
")  c #C6C6C6",
"_  c gray78",
"`  c #C8C8C8",
"'  c gray79",
"]  c #CACACA",
"[  c #CBCBCB",
"{  c gray80",
"}  c #CDCDCD",
"|  c #CECECE",
" . c gray81",
".. c #D0D0D0",
"X. c gray82",
"o. c #D2D2D2",
"O. c LightGray",
"+. c gray83",
"@. c #D5D5D5",
"#. c gray84",
"$. c #D7D7D7",
"%. c #D8D8D8",
"&. c gray85",
"*. c #DADADA",
"=. c gray86",
"-. c gainsboro",
";. c #DDDDDD",
":. c #DFDFDF",
">. c gray88",
",. c gray91",
"<. c #E9E9E9",
/* pixels */
"                                                                                                                                ",
"                                                                                                                                ",
"                                                                                                                                ",
"                                                                                                                                ",
"                                                                                                                                ",
"                                                                                                                                ",
"                                                                              + +               4 4 8 8 i s i s 8               ",
"                            4 x 1                             8 8           + 4 > +           4 Y D H D H D B T D r             ",
"                          8 V o.i                           4 D T 8         + 8 4 @           1 D T T Y B V B { D r             ",
"                        8 T ` D >                           8 D T 8           1 >               8 i i s r s h D i               ",
"                      8 T =.T 4                             i ` ` i                                   8 h V B 1                 ",
"                    8 D o.V 4                               r H H 4                                 4 D V c 1                   ",
"                  > H H B >                                 4 H V r                               1 B V x 1                     ",
"                1 D ~ h >                                   1 H V 8                             4 V Y h =                       ",
"              1 H $.~ 1                                     1 o.T r                           > T ` x =                         ",
"              c Y H 8                                       r o.~ i                           h ` H 1                           ",
"              B ` D r                                     > B ( T r                         8 V ~ s                             ",
"              > c H Y 8                                 > c H Y h                           i ~ D 4                             ",
"                > V =.Y 8                             > x V B 8                             r H h 1                             ",
"                  1 H Y V 4                         4 T ( D 4                               8 V s 1                             ",
"                    > i D D 1                     = h T Y 4                                 8 Y B 4                             ",
"                      = i T D 8                 1 h Y c 4                                   8 H B 4                             ",
"                        > B T H h 8 r 8 i i h h c h x =                       r c h s r 1 1 8 V c 8                             ",
"                          1 V Y T H { Y ~ Y ~ r s h 4                       i T $.o.D s 8 r i s h i                             ",
"                            4 D D Y o.o.~ T D h x V 4                     4 D Y $.` c h s D V B Y D 4                           ",
"                              8 h s i s r r s i x s s @                 > c H H { V 4 > 8 h x V Y ~ V 1                         ",
"                                                1 h h 4 >               i Y ~ ( { x             8 B V x 4                       ",
"                                                  = 1 1 h 4           i V T H ~ { h               1 c Y Y 8                     ",
"                                                    @ 8 B H 8       > h D Y Y B ( x                 > x D D 1                   ",
"                                                      > c T H 8   s D ~ ~ H D i x r                   4 c H x 1                 ",
"                                                        1 B { ` ` ` T H V i 1 = 1 r                     = h D V +               ",
"              = 8 1           B > @                       1 ( $.=.` D ~ D h 4 r r s                       1 V ( s X             ",
"              8 h D 4       c ( 4 = @                       T o.` Y Y c = X > h B c                         4 V r =             ",
"              @ h ;.T 4     V ` D c h c h                   h ~ $.{ T c 4 s T ~ ~ c                           1 8 =             ",
"                @ V B V 4   x B V x i r B c                 4 B Y ~ Y c 4 h ( ~ H s                                             ",
"                  > h B B 8 c T T V H c H D                 i { o.=.T ` ` =.$.T Y c                                             ",
"                    > c D c x H H V V h H H                 i ( T o.$.>.;.$.$.{ ` B                                             ",
"                      > c H T { $.Y ( T ~ B                 i T T ` ~ ;.=.$.$.$.=.V                                             ",
"                        1 V V D Y V D h                     i B x B H $.( { =.>.{ r                                             ",
"                          8 Y T ` Y x                       B Y V B B { ` $.=.o.~ s                                             ",
"                            c V ~ ~                       4 T { ` ~ ( Y Y { ,.$.c 4 >                                           ",
"                            i B Y s                     1 h x H Y c h r s h T T Y D D 8                                         ",
"                                                      8 B x i 4                 > h ` T 8                                       ",
"                                                    4 H ~ c >                     1 Y ( Y 1                                     ",
"                                                  = V Y V 1                         4 B Y x 1                                   ",
"                                                4 s h r >                             > x h x >                                 ",
"                                i i 8 1 4 > = 1 x h i =                                 > x T c >                               ",
"                            = h ~ T D B V c i c c V >                                     1 c V B 8                             ",
"                          1 V H ~ T T H T c h c Y i                                         s Y Y B                             ",
"                        4 H { Y i 4 8 i s i s i i                                           r Y D r                             ",
"                      r Y { V 1                                                             8 D H r                             ",
"                    8 ~ ` H >                                                               4 c V r                             ",
"                  8 ( $.V 4                                                                 r H Y s                             ",
"                r ( ,.H >                                                                   i { ( i                             ",
"              > Y o.Y 1                                         > 8 s i r 8 8 4 >           r ~ Y 8                             ",
"              i o.T 1                                         1 8 s H Y D h i 1 r 1         r H H 8                             ",
"              = h 1                                           1 i c c h h r 8 1 x 4         8 V B 4                             ",
"                                                                1 r 8 4 4 4 1 r 8             r 1                               ",
"                                                                                                                                ",
"                                                                                                                                ",
"                                                                                                                                ",
"                                                                                                                                ",
"                                                                                                                                ",
"                                                                                                                                "
};
